<svg width="2063" height="490" viewBox="0 0 2063 490" fill="none" xmlns="http://www.w3.org/2000/svg">
<path fill-rule="evenodd" clip-rule="evenodd" d="M0.0629883 489.585H2063V268.681C2001.52 312.199 1769.36 458.777 1457.69 435.844C1092.42 408.973 945.567 242.433 594.595 70.5729C243.554 -101.356 0.0629883 95.6474 0.0629883 95.6474V489.585Z" fill="#FF8800" fill-opacity="0.56"/>
<path fill-rule="evenodd" clip-rule="evenodd" d="M0.0629883 263.846C51.8005 294.792 113.968 321.248 175.515 321.248C324.165 321.248 524.76 220.95 721.694 271.099C918.697 321.248 1110.31 473.49 1264.28 460.918C1418.32 448.415 1586.66 323.044 1774.68 358.825C1962.7 394.675 2063 435.844 2063 435.844V489.585H0.0629883V263.846Z" fill="#FF8800"/>
</svg>
